<svg xmlns="http://www.w3.org/2000/svg" xmlns:xlink="http://www.w3.org/1999/xlink" viewBox="0,0,256,256" width="24px" height="24px"><g fill="#ffffff" fill-rule="nonzero" stroke="none" stroke-width="1" stroke-linecap="butt" stroke-linejoin="miter" stroke-miterlimit="10" stroke-dasharray="" stroke-dashoffset="0" font-family="none" font-weight="none" font-size="none" text-anchor="none" style="mix-blend-mode: normal"><g transform="scale(10.66667,10.66667)"><path d="M18.49219,2.99414c-0.14781,0.00341 -0.28653,0.07206 -0.37891,0.1875l-5.05273,6.13477l-4.00391,-5.54492c-0.35,-0.484 -0.91081,-0.77148 -1.50781,-0.77148h-3.4707c-0.658,0 -1.0393,0.7463 -0.6543,1.2793l6.44141,8.91992l-5.75195,6.98242c-0.11376,0.13816 -0.14516,0.32652 -0.08238,0.49411c0.06278,0.16759 0.21021,0.28896 0.38674,0.31838c0.17653,0.02942 0.35535,-0.03759 0.46908,-0.17577l5.58398,-6.78125l4.47266,6.19141c0.35,0.484 0.91081,0.77148 1.50781,0.77148h3.4707c0.658,0 1.0393,-0.7463 0.6543,-1.2793l-6.9082,-9.56445l5.21875,-6.33789c0.12815,-0.15036 0.15576,-0.36207 0.07046,-0.54026c-0.0853,-0.1782 -0.26751,-0.28947 -0.46499,-0.28395zM4.45508,4h3.0957c0.275,0 0.53431,0.13247 0.69531,0.35547l11.29883,15.64453h-3.09375c-0.275,0 -0.53431,-0.13247 -0.69531,-0.35547z"></path></g></g></svg>